<svg xmlns="http://www.w3.org/2000/svg" width="1600" height="900" viewBox="0 0 1600 900" role="img" aria-label="A sky invented by three agents">
<rect width="1600" height="900" fill="#0b1024"/>
<g stroke="#5c6f9c" stroke-width="1.1" opacity="0.75">
<line x1="1062.21" y1="317.53" x2="1078.67" y2="285.35"/>
<line x1="1078.67" y1="285.35" x2="1107.80" y2="221.49"/>
<line x1="1107.80" y1="221.49" x2="1149.37" y2="141.47"/>
<line x1="1149.37" y1="141.47" x2="1229.88" y2="70.00"/>
<line x1="1229.88" y1="70.00" x2="1260.26" y2="153.58"/>
<line x1="1260.26" y1="153.58" x2="1228.13" y2="256.67"/>
<line x1="1228.13" y1="256.67" x2="1222.20" y2="207.69"/>
</g>
<circle cx="1222.20" cy="207.69" r="1.92" fill="#ff9257"/>
<circle cx="1149.37" cy="141.47" r="2.74" fill="#f6f4ff"/>
<circle cx="1062.21" cy="317.53" r="3.37" fill="#ffc978"/>
<circle cx="1229.88" cy="70.00" r="5.61" fill="#ff9257"/>
<circle cx="1228.13" cy="256.67" r="4.76" fill="#8ab0ff"/>
<circle cx="1078.67" cy="285.35" r="2.34" fill="#d3e0ff"/>
<circle cx="1107.80" cy="221.49" r="4.20" fill="#a9c4ff"/>
<circle cx="1260.26" cy="153.58" r="2.91" fill="#fff2d6"/>
<text x="1167.31" y="188.72" fill="#8fa3d0" font-size="15" font-family="Georgia, serif" text-anchor="middle">The Salt Hook</text>
<g stroke="#5c6f9c" stroke-width="1.1" opacity="0.75">
<line x1="1049.40" y1="324.76" x2="1074.47" y2="382.18"/>
<line x1="1074.47" y1="382.18" x2="1081.56" y2="429.67"/>
<line x1="1081.56" y1="429.67" x2="1092.98" y2="457.67"/>
<line x1="1092.98" y1="457.67" x2="1128.73" y2="426.41"/>
<line x1="1128.73" y1="426.41" x2="1128.23" y2="374.69"/>
<line x1="1128.23" y1="374.69" x2="1049.40" y2="324.76"/>
</g>
<circle cx="1049.40" cy="324.76" r="5.12" fill="#8ab0ff"/>
<circle cx="1074.47" cy="382.18" r="3.67" fill="#a9c4ff"/>
<circle cx="1081.56" cy="429.67" r="4.31" fill="#d3e0ff"/>
<circle cx="1092.98" cy="457.67" r="2.49" fill="#f6f4ff"/>
<circle cx="1128.73" cy="426.41" r="2.91" fill="#fff2d6"/>
<circle cx="1128.23" cy="374.69" r="1.92" fill="#ffc978"/>
<text x="1092.56" y="381.23" fill="#8fa3d0" font-size="15" font-family="Georgia, serif" text-anchor="middle">The Silver Weasel</text>
<g stroke="#5c6f9c" stroke-width="1.1" opacity="0.75">
<line x1="1117.03" y1="511.36" x2="1126.80" y2="481.24"/>
<line x1="1117.03" y1="511.36" x2="1146.57" y2="518.49"/>
<line x1="1126.80" y1="481.24" x2="1158.21" y2="432.44"/>
<line x1="1146.57" y1="518.49" x2="1209.45" y2="514.23"/>
<line x1="1158.21" y1="432.44" x2="1206.17" y2="440.27"/>
<line x1="1206.17" y1="440.27" x2="1209.45" y2="514.23"/>
<line x1="1117.03" y1="511.36" x2="1176.06" y2="482.38"/>
</g>
<circle cx="1117.03" cy="511.36" r="4.20" fill="#a9c4ff"/>
<circle cx="1126.80" cy="481.24" r="2.91" fill="#d3e0ff"/>
<circle cx="1146.57" cy="518.49" r="3.37" fill="#f6f4ff"/>
<circle cx="1158.21" cy="432.44" r="2.19" fill="#ffc978"/>
<circle cx="1209.45" cy="514.23" r="5.00" fill="#8ab0ff"/>
<circle cx="1176.06" cy="482.38" r="1.79" fill="#ff9257"/>
<circle cx="1206.17" cy="440.27" r="2.65" fill="#fff2d6"/>
<text x="1162.90" y="464.91" fill="#8fa3d0" font-size="15" font-family="Georgia, serif" text-anchor="middle">The Cracked Bell</text>
<g stroke="#5c6f9c" stroke-width="1.1" opacity="0.75">
<line x1="1145.57" y1="581.59" x2="1208.25" y2="550.30"/>
<line x1="1208.25" y1="550.30" x2="1294.22" y2="609.91"/>
<line x1="1294.22" y1="609.91" x2="1190.45" y2="633.68"/>
<line x1="1190.45" y1="633.68" x2="1145.57" y2="581.59"/>
<line x1="1208.25" y1="550.30" x2="1213.28" y2="593.97"/>
<line x1="1213.28" y1="593.97" x2="1190.45" y2="633.68"/>
<line x1="1145.57" y1="581.59" x2="1213.28" y2="593.97"/>
<line x1="1213.28" y1="593.97" x2="1294.22" y2="609.91"/>
<line x1="1294.22" y1="609.91" x2="1378.28" y2="663.44"/>
<line x1="1378.28" y1="663.44" x2="1526.33" y2="615.33"/>
</g>
<circle cx="1145.57" cy="581.59" r="4.76" fill="#a9c4ff"/>
<circle cx="1190.45" cy="633.68" r="2.65" fill="#ffc978"/>
<circle cx="1213.28" cy="593.97" r="5.48" fill="#d3e0ff"/>
<circle cx="1294.22" cy="609.91" r="3.77" fill="#fff2d6"/>
<circle cx="1526.33" cy="615.33" r="1.68" fill="#8ab0ff"/>
<circle cx="1378.28" cy="663.44" r="2.19" fill="#ff9257"/>
<circle cx="1208.25" cy="550.30" r="3.09" fill="#f6f4ff"/>
<text x="1279.48" y="588.89" fill="#8fa3d0" font-size="15" font-family="Georgia, serif" text-anchor="middle">The Glass Kite</text>
<g stroke="#5c6f9c" stroke-width="1.1" opacity="0.75">
<line x1="1213.35" y1="692.90" x2="1136.19" y2="685.52"/>
<line x1="1136.19" y1="685.52" x2="1134.11" y2="763.00"/>
<line x1="1134.11" y1="763.00" x2="1230.36" y2="791.96"/>
<line x1="1230.36" y1="791.96" x2="1213.35" y2="692.90"/>
<line x1="1196.12" y1="714.55" x2="1157.70" y2="748.54"/>
</g>
<circle cx="1213.35" cy="692.90" r="5.12" fill="#8ab0ff"/>
<circle cx="1136.19" cy="685.52" r="3.88" fill="#a9c4ff"/>
<circle cx="1134.11" cy="763.00" r="3.37" fill="#d3e0ff"/>
<circle cx="1230.36" cy="791.96" r="2.74" fill="#f6f4ff"/>
<circle cx="1196.12" cy="714.55" r="2.19" fill="#ffc978"/>
<circle cx="1157.70" cy="748.54" r="1.92" fill="#ff9257"/>
<text x="1177.97" y="714.75" fill="#8fa3d0" font-size="15" font-family="Georgia, serif" text-anchor="middle">The Weaver's Shuttle</text>
<g stroke="#5c6f9c" stroke-width="1.1" opacity="0.75">
<line x1="1071.85" y1="727.61" x2="1031.99" y2="685.17"/>
<line x1="1031.99" y1="685.17" x2="993.69" y2="723.04"/>
<line x1="993.69" y1="723.04" x2="1006.88" y2="801.15"/>
<line x1="1006.88" y1="801.15" x2="1067.07" y2="786.08"/>
<line x1="1067.07" y1="786.08" x2="1071.85" y2="727.61"/>
<line x1="1071.85" y1="727.61" x2="1027.72" y2="751.06"/>
<line x1="993.69" y1="723.04" x2="1027.72" y2="751.06"/>
</g>
<circle cx="1071.85" cy="727.61" r="5.12" fill="#8ab0ff"/>
<circle cx="1031.99" cy="685.17" r="3.88" fill="#a9c4ff"/>
<circle cx="993.69" cy="723.04" r="3.09" fill="#d3e0ff"/>
<circle cx="1006.88" cy="801.15" r="2.49" fill="#f6f4ff"/>
<circle cx="1067.07" cy="786.08" r="1.98" fill="#fff2d6"/>
<circle cx="1027.72" cy="751.06" r="1.57" fill="#ffc978"/>
<text x="1033.20" y="727.69" fill="#8fa3d0" font-size="15" font-family="Georgia, serif" text-anchor="middle">The Obsidian Mirror</text>
<g stroke="#5c6f9c" stroke-width="1.1" opacity="0.75">
<line x1="971.71" y1="668.27" x2="956.18" y2="706.42"/>
<line x1="956.18" y1="706.42" x2="901.00" y2="765.73"/>
<line x1="901.00" y1="765.73" x2="861.85" y2="767.76"/>
<line x1="861.85" y1="767.76" x2="861.86" y2="720.32"/>
<line x1="861.86" y1="720.32" x2="912.61" y2="686.36"/>
<line x1="912.61" y1="686.36" x2="944.45" y2="679.66"/>
<line x1="944.45" y1="679.66" x2="971.71" y2="668.27"/>
<line x1="944.45" y1="679.66" x2="861.85" y2="767.76"/>
</g>
<circle cx="971.71" cy="668.27" r="4.76" fill="#8ab0ff"/>
<circle cx="944.45" cy="679.66" r="2.49" fill="#d3e0ff"/>
<circle cx="912.61" cy="686.36" r="3.57" fill="#f6f4ff"/>
<circle cx="956.18" cy="706.42" r="2.12" fill="#a9c4ff"/>
<circle cx="901.00" cy="765.73" r="5.61" fill="#fff2d6"/>
<circle cx="861.86" cy="720.32" r="2.91" fill="#ff9257"/>
<circle cx="861.85" cy="767.76" r="1.85" fill="#ffc978"/>
<text x="915.66" y="695.50" fill="#8fa3d0" font-size="15" font-family="Georgia, serif" text-anchor="middle">The Sunken Harp</text>
<g stroke="#5c6f9c" stroke-width="1.1" opacity="0.75">
<line x1="73.67" y1="714.03" x2="366.68" y2="830.00"/>
<line x1="366.68" y1="830.00" x2="479.15" y2="649.81"/>
<line x1="479.15" y1="649.81" x2="316.50" y2="513.19"/>
<line x1="316.50" y1="513.19" x2="73.67" y2="714.03"/>
<line x1="73.67" y1="714.03" x2="479.15" y2="649.81"/>
<line x1="479.15" y1="649.81" x2="583.99" y2="609.56"/>
<line x1="583.99" y1="609.56" x2="595.23" y2="703.45"/>
<line x1="583.99" y1="609.56" x2="663.09" y2="569.29"/>
<line x1="663.09" y1="569.29" x2="712.77" y2="529.82"/>
</g>
<circle cx="316.50" cy="513.19" r="3.37" fill="#f6f4ff"/>
<circle cx="366.68" cy="830.00" r="2.65" fill="#ffc978"/>
<circle cx="663.09" cy="569.29" r="2.34" fill="#ffc978"/>
<circle cx="583.99" cy="609.56" r="2.91" fill="#fff2d6"/>
<circle cx="712.77" cy="529.82" r="4.53" fill="#8ab0ff"/>
<circle cx="479.15" cy="649.81" r="3.98" fill="#a9c4ff"/>
<circle cx="595.23" cy="703.45" r="1.98" fill="#ff9257"/>
<circle cx="73.67" cy="714.03" r="5.36" fill="#d3e0ff"/>
<text x="473.89" y="621.89" fill="#8fa3d0" font-size="15" font-family="Georgia, serif" text-anchor="middle">The Ferryman's Oar</text>
<g stroke="#5c6f9c" stroke-width="1.1" opacity="0.75">
<line x1="375.51" y1="373.43" x2="528.56" y2="410.31"/>
<line x1="528.56" y1="410.31" x2="635.33" y2="430.87"/>
<line x1="635.33" y1="430.87" x2="709.51" y2="443.95"/>
<line x1="522.60" y1="133.03" x2="641.30" y2="224.64"/>
<line x1="641.30" y1="224.64" x2="726.46" y2="287.83"/>
<line x1="726.46" y1="287.83" x2="786.80" y2="331.89"/>
<line x1="375.51" y1="373.43" x2="522.60" y2="133.03"/>
<line x1="528.56" y1="410.31" x2="641.30" y2="224.64"/>
<line x1="635.33" y1="430.87" x2="726.46" y2="287.83"/>
<line x1="709.51" y1="443.95" x2="786.80" y2="331.89"/>
</g>
<circle cx="375.51" cy="373.43" r="4.42" fill="#ff9257"/>
<circle cx="522.60" cy="133.03" r="2.91" fill="#ffc978"/>
<circle cx="528.56" cy="410.31" r="2.34" fill="#ffc978"/>
<circle cx="641.30" cy="224.64" r="3.67" fill="#fff2d6"/>
<circle cx="635.33" cy="430.87" r="1.92" fill="#f6f4ff"/>
<circle cx="726.46" cy="287.83" r="2.74" fill="#d3e0ff"/>
<circle cx="709.51" cy="443.95" r="3.28" fill="#a9c4ff"/>
<circle cx="786.80" cy="331.89" r="5.86" fill="#8ab0ff"/>
<text x="615.76" y="311.49" fill="#8fa3d0" font-size="15" font-family="Georgia, serif" text-anchor="middle">The Bone Ladder</text>
<g stroke="#5c6f9c" stroke-width="1.1" opacity="0.75">
<line x1="897.75" y1="377.30" x2="961.21" y2="435.16"/>
<line x1="961.21" y1="435.16" x2="986.31" y2="368.08"/>
<line x1="986.31" y1="368.08" x2="922.80" y2="258.20"/>
<line x1="922.80" y1="258.20" x2="897.75" y2="377.30"/>
<line x1="897.75" y1="377.30" x2="947.35" y2="363.98"/>
<line x1="947.35" y1="363.98" x2="986.31" y2="368.08"/>
<line x1="986.31" y1="368.08" x2="1006.43" y2="309.35"/>
</g>
<circle cx="897.75" cy="377.30" r="4.76" fill="#a9c4ff"/>
<circle cx="961.21" cy="435.16" r="3.37" fill="#d3e0ff"/>
<circle cx="986.31" cy="368.08" r="2.82" fill="#f6f4ff"/>
<circle cx="922.80" cy="258.20" r="3.09" fill="#ffc978"/>
<circle cx="1006.43" cy="309.35" r="1.98" fill="#ff9257"/>
<circle cx="947.35" cy="363.98" r="2.19" fill="#fff2d6"/>
<text x="953.64" y="334.01" fill="#8fa3d0" font-size="15" font-family="Georgia, serif" text-anchor="middle">The Silver Compass</text>

<text x="24" y="878" fill="#6b7ba8" font-size="16" font-family="monospace">07/8  00:00:57Z  task 10: The Bone Ladder, an 8-star ladder in RA 280-320</text>
<!-- constellations=10 stars=69 segments=76 dropped_segments=0 skipped=none modules={'projection': 'starmap/projection.py', 'style': 'starmap/style.py', 'legend': 'fallback (none)'} -->
</svg>